<?xml version="1.0" standalone="no"?>
<!DOCTYPE svg PUBLIC "-//W3C//DTD SVG 20010904//EN"
 "http://www.w3.org/TR/2001/REC-SVG-20010904/DTD/svg10.dtd">
<svg version="1.0" xmlns="http://www.w3.org/2000/svg"
 width="500.000000pt" height="500.000000pt" viewBox="0 0 500.000000 500.000000"
 preserveAspectRatio="xMidYMid meet">

<g transform="translate(0.000000,500.000000) scale(0.100000,-0.100000)"
fill="#000000" stroke="none">
<path d="M1057 2896 c-13 -14 -49 -207 -63 -345 -10 -91 -6 -94 135 -86 64 4
122 12 129 17 6 6 12 21 12 34 0 34 -39 56 -97 54 -81 -3 -79 -4 -75 36 4 35
5 35 42 29 31 -5 43 -2 59 14 12 12 21 27 21 34 0 21 -31 44 -67 52 -34 7 -37
13 -27 53 6 20 12 22 70 22 53 0 65 3 74 20 15 28 3 59 -27 71 -39 15 -169 11
-186 -5z"/>
<path d="M1561 2795 c-23 -41 -43 -75 -45 -75 -2 0 -24 32 -50 70 -40 61 -50
70 -76 70 -23 0 -33 -6 -42 -25 -10 -22 -4 -35 51 -121 l62 -96 -41 -67 c-47
-78 -50 -107 -16 -123 35 -15 52 -5 88 52 l31 50 45 -50 c47 -53 61 -59 86
-34 26 25 19 57 -28 119 l-44 59 51 97 c47 87 50 98 40 122 -10 20 -20 27 -42
27 -26 0 -34 -8 -70 -75z"/>
<path d="M832 2843 c-5 -10 -15 -56 -22 -103 -17 -114 -23 -123 -45 -66 -10
26 -27 58 -37 72 -21 26 -59 32 -76 12 -10 -13 -66 -240 -78 -314 -7 -47 12
-74 51 -74 29 0 38 16 54 95 22 106 21 105 56 29 42 -89 56 -102 89 -80 29 19
28 16 60 181 40 211 41 223 21 245 -22 25 -61 26 -73 3z"/>
<path d="M1760 2835 c-20 -24 -8 -209 17 -265 26 -60 74 -100 119 -100 108 0
186 99 201 258 7 70 -6 107 -40 116 -42 11 -57 -10 -57 -77 0 -82 -16 -134
-50 -169 -60 -60 -92 -20 -98 121 -2 53 -8 104 -14 114 -11 21 -61 23 -78 2z"/>
<path d="M4501 2591 c-36 -34 -44 -66 -8 -34 19 17 28 18 65 11 35 -8 41 -12
32 -23 -6 -8 -18 -11 -26 -8 -8 3 -14 -1 -14 -10 0 -9 -6 -20 -14 -24 -8 -4
-15 -12 -16 -18 -1 -5 -12 -9 -26 -8 -58 4 -4 -87 62 -103 44 -11 91 5 123 42
30 34 41 74 21 74 -5 0 -10 7 -10 15 0 8 -10 23 -22 35 -12 11 -16 20 -10 20
7 0 21 -9 32 -20 24 -24 25 -19 5 20 -23 44 -53 60 -111 60 -43 0 -57 -5 -83
-29z m59 -171 c0 -5 -7 -7 -15 -4 -8 4 -15 8 -15 10 0 2 7 4 15 4 8 0 15 -4
15 -10z"/>
</g>
</svg>
